# xmcd CD database file
#
# Track frame offsets:
#	150
#	15493
#	28748
#	32955
#	52445
#	69873
#	78963
#	94870
#	112878
#	123594
#	137779
#	145621
#	159793
#	171767
#	187868
#	203211
#	216300
#	220507
#	237935
#	253842
#	271850
#	282566
#	296751
#	304593
#	318765
#
# Disc length: 4407 seconds
#
# Revision: 0
# Processed by: cddbd v1.5.1PL0 Copyright (c) Steve Scherf et al.
# Submitted via: CDex 1.51
#
DISCID=69113519
DTITLE=Haurrock - Bertsoa Dantzan
DYEAR=2001
DGENRE=Euskal Haur Musika
TTITLE0=Istorio Eta Misterio
TTITLE1=Gure Rockan Sar
TTITLE2=Kattalin Gorri
TTITLE3=Izarrei Begira
TTITLE4=Etxea Eraiki
TTITLE5=Bi Ahuntz Ttipi
TTITLE6=Bertsoa Dantzan
TTITLE7=Haizea
TTITLE8=Ttirri Ttarra
TTITLE9=Zazpi Supizteko
TTITLE10=Kulunkan
TTITLE11=Pinguinoa
TTITLE12=Eztiki, Gordezka
TTITLE13=Gau Ederra
TTITLE14=Istorio Eta Misterio Instrumentala
TTITLE15=Gure Rockan Sar Instrumentala
TTITLE16=Kattalin Gorri Instrumentala
TTITLE17=Etxea Eraiki Instrumentala
TTITLE18=Bertsoa Dantzan Instrumentala
TTITLE19=Haizea Instrumentala
TTITLE20=Ttirri Ttarra Instrumentala
TTITLE21=Zazpi Supizteko Instrumentala
TTITLE22=Kulunkan Instrumentala
TTITLE23=Pinguinoa Instrumentala
TTITLE24=Eztiki, Gordezka
EXTD=YEAR: 2001
EXTT0=
EXTT1=
EXTT2=
EXTT3=
EXTT4=
EXTT5=
EXTT6=
EXTT7=
EXTT8=
EXTT9=
EXTT10=
EXTT11=
EXTT12=
EXTT13=
EXTT14=
EXTT15=
EXTT16=
EXTT17=
EXTT18=
EXTT19=
EXTT20=
EXTT21=
EXTT22=
EXTT23=
EXTT24=
PLAYORDER=
